<?xml version="1.0" encoding="utf-8"?>
<COLLADA xmlns="http://www.collada.org/2005/11/COLLADASchema" version="1.4.1" xmlns:xsi="http://www.w3.org/2001/XMLSchema-instance">
  <asset>
    <contributor>
      <author>Blender User</author>
      <authoring_tool>Blender 2.92.0 commit date:2021-02-24, commit time:16:25, hash:02948a2cab44</authoring_tool>
    </contributor>
    <created>2021-04-15T23:57:56</created>
    <modified>2021-04-15T23:57:56</modified>
    <unit name="meter" meter="1"/>
    <up_axis>Z_UP</up_axis>
  </asset>
  <library_cameras>
    <camera id="Camera-camera" name="Camera">
      <optics>
        <technique_common>
          <perspective>
            <xfov sid="xfov">39.59775</xfov>
            <aspect_ratio>1.777778</aspect_ratio>
            <znear sid="znear">0.1</znear>
            <zfar sid="zfar">100</zfar>
          </perspective>
        </technique_common>
      </optics>
      <extra>
        <technique profile="blender">
          <shiftx sid="shiftx" type="float">0</shiftx>
          <shifty sid="shifty" type="float">0</shifty>
          <dof_distance sid="dof_distance" type="float">10</dof_distance>
        </technique>
      </extra>
    </camera>
  </library_cameras>
  <library_lights>
    <light id="Light-light" name="Light">
      <technique_common>
        <point>
          <color sid="color">1000 1000 1000</color>
          <constant_attenuation>1</constant_attenuation>
          <linear_attenuation>0</linear_attenuation>
          <quadratic_attenuation>0.00111109</quadratic_attenuation>
        </point>
      </technique_common>
      <extra>
        <technique profile="blender">
          <type sid="type" type="int">0</type>
          <flag sid="flag" type="int">0</flag>
          <mode sid="mode" type="int">1</mode>
          <gamma sid="blender_gamma" type="float">1</gamma>
          <red sid="red" type="float">1</red>
          <green sid="green" type="float">1</green>
          <blue sid="blue" type="float">1</blue>
          <shadow_r sid="blender_shadow_r" type="float">0</shadow_r>
          <shadow_g sid="blender_shadow_g" type="float">0</shadow_g>
          <shadow_b sid="blender_shadow_b" type="float">0</shadow_b>
          <energy sid="blender_energy" type="float">1000</energy>
          <dist sid="blender_dist" type="float">29.99998</dist>
          <spotsize sid="spotsize" type="float">75</spotsize>
          <spotblend sid="spotblend" type="float">0.15</spotblend>
          <att1 sid="att1" type="float">0</att1>
          <att2 sid="att2" type="float">1</att2>
          <falloff_type sid="falloff_type" type="int">2</falloff_type>
          <clipsta sid="clipsta" type="float">0.04999995</clipsta>
          <clipend sid="clipend" type="float">30.002</clipend>
          <bias sid="bias" type="float">1</bias>
          <soft sid="soft" type="float">3</soft>
          <bufsize sid="bufsize" type="int">2880</bufsize>
          <samp sid="samp" type="int">3</samp>
          <buffers sid="buffers" type="int">1</buffers>
          <area_shape sid="area_shape" type="int">1</area_shape>
          <area_size sid="area_size" type="float">0.1</area_size>
          <area_sizey sid="area_sizey" type="float">0.1</area_sizey>
          <area_sizez sid="area_sizez" type="float">1</area_sizez>
        </technique>
      </extra>
    </light>
  </library_lights>
  <library_effects>
    <effect id="base_tower-effect">
      <profile_COMMON>
        <technique sid="common">
          <lambert>
            <emission>
              <color sid="emission">0 0 0 1</color>
            </emission>
            <diffuse>
              <color sid="diffuse">0.001353697 0.8000001 0.05331983 1</color>
            </diffuse>
            <index_of_refraction>
              <float sid="ior">1.45</float>
            </index_of_refraction>
          </lambert>
        </technique>
      </profile_COMMON>
    </effect>
    <effect id="Material-effect">
      <profile_COMMON>
        <technique sid="common">
          <lambert>
            <emission>
              <color sid="emission">0 0 0 1</color>
            </emission>
            <diffuse>
              <color sid="diffuse">0.8000001 0 0.008711318 1</color>
            </diffuse>
            <index_of_refraction>
              <float sid="ior">1.45</float>
            </index_of_refraction>
          </lambert>
        </technique>
      </profile_COMMON>
    </effect>
    <effect id="Material_001-effect">
      <profile_COMMON>
        <technique sid="common">
          <lambert>
            <emission>
              <color sid="emission">0 0 0 1</color>
            </emission>
            <diffuse>
              <color sid="diffuse">0.1136548 0.510074 0.8000001 1</color>
            </diffuse>
            <index_of_refraction>
              <float sid="ior">1.45</float>
            </index_of_refraction>
          </lambert>
        </technique>
      </profile_COMMON>
    </effect>
    <effect id="Material_002-effect">
      <profile_COMMON>
        <technique sid="common">
          <lambert>
            <emission>
              <color sid="emission">0 0 0 1</color>
            </emission>
            <diffuse>
              <color sid="diffuse">0.0146695 0.0146695 0.0146695 1</color>
            </diffuse>
            <index_of_refraction>
              <float sid="ior">1.45</float>
            </index_of_refraction>
          </lambert>
        </technique>
      </profile_COMMON>
    </effect>
  </library_effects>
  <library_images/>
  <library_materials>
    <material id="base_tower-material" name="base tower">
      <instance_effect url="#base_tower-effect"/>
    </material>
    <material id="Material-material" name="Material">
      <instance_effect url="#Material-effect"/>
    </material>
    <material id="Material_001-material" name="Material.001">
      <instance_effect url="#Material_001-effect"/>
    </material>
    <material id="Material_002-material" name="Material.002">
      <instance_effect url="#Material_002-effect"/>
    </material>
  </library_materials>
  <library_geometries>
    <geometry id="Cube-mesh" name="Cube">
      <mesh>
        <source id="Cube-mesh-positions">
          <float_array id="Cube-mesh-positions-array" count="204">1 1 1 1 1 -0.4590548 1 -1 1 1 -1 -0.4590548 -1 1 1 -1 1 -0.4590548 -1 -1 1 -1 -1 -0.4590548 0.5190913 0.5190913 2.020207 0.5190913 -0.5190913 2.020207 -0.5190913 0.5190913 2.020207 -0.5190913 -0.5190913 2.020207 1.267435 0.5190913 2.311062 1.267435 -0.5190913 2.311062 -0.5190913 0.5190913 2.311062 -0.5190913 -0.5190913 2.311062 1.267435 0.5190913 3.133908 1.267435 -0.5190913 3.133908 -0.5190913 0.5190913 3.133908 -0.5190913 -0.5190913 3.133908 -1.007701 0.1338565 2.616392 -1.007701 -0.1338565 2.616392 -1.007701 0.1338565 2.828578 -1.007701 -0.1338565 2.828578 -3.394721 0.1081237 2.636788 -3.394721 -0.1081237 2.636788 -3.394721 0.1081237 2.808182 -3.394721 -0.1081237 2.808182 -3.394721 0.1483429 2.604911 -3.394721 -0.1483429 2.604911 -3.394721 0.1483429 2.840059 -3.394721 -0.1483429 2.840059 -3.865651 0.1483429 2.604911 -3.865651 -0.1483429 2.604911 -3.865651 0.1483429 2.840059 -3.865651 -0.1483429 2.840059 0.4686203 0.2274325 2.087707 0.4686203 -0.2274325 2.087707 -0.2274325 0.2274325 2.087707 -0.2274325 -0.2274325 2.087707 0.6712364 0.2274325 2.408801 0.6712364 -0.2274325 2.408801 0.2163712 0.2274325 2.408801 0.2163712 -0.2274325 2.408801 1.304951 1.304951 -0.6408936 1.304951 -1.304951 -0.6408936 -1.304951 1.304951 -0.6408936 -1.304951 -1.304951 -0.6408936 1.304951 1.304951 -0.9694133 1.304951 -1.304951 -0.9694133 -1.304951 1.304951 -0.9694133 -1.304951 -1.304951 -0.9694133 1.644974 0.3190181 2.469636 1.644974 -0.3190181 2.469636 1.644974 0.3190181 2.975334 1.644974 -0.3190181 2.975334 1.469387 0.1548147 2.599781 1.469387 -0.1548147 2.599781 1.469387 0.1548147 2.845189 1.469387 -0.1548147 2.845189 -3.865651 0.08153259 2.657864 -3.865651 -0.08153259 2.657864 -3.865651 0.08153259 2.787106 -3.865651 -0.08153259 2.787106 0.3018358 0.08153259 2.657864 0.3018358 -0.08153259 2.657864 0.3018358 0.08153259 2.787106 0.3018358 -0.08153259 2.787106</float_array>
          <technique_common>
            <accessor source="#Cube-mesh-positions-array" count="68" stride="3">
              <param name="X" type="float"/>
              <param name="Y" type="float"/>
              <param name="Z" type="float"/>
            </accessor>
          </technique_common>
        </source>
        <source id="Cube-mesh-normals">
          <float_array id="Cube-mesh-normals-array" count="228">0 0.9045414 0.4263859 0 -1 0 -1 0 0 0 -0.5121497 0.8588963 1 0 0 0 1 0 0 0 -1 0 -0.9045414 0.4263859 -0.9045414 0 0.4263859 0.9045414 0 0.4263859 0 -0.225474 0.9742492 0 1 0 -0.225474 0 0.9742492 0 0 1 0.4682527 0.8835947 0 -0.6191396 0.785281 0 -0.01077967 -0.999942 0 -0.5299356 0 0.8480379 -0.6191396 -0.785281 0 -0.5299357 0 -0.8480378 -0.008543968 0 0.9999635 -0.01077961 0.999942 0 -0.008544087 0 -0.9999635 1 4.32336e-6 0 1 -4.32335e-6 0 -1 -5.69097e-6 0 0 0.2254741 0.9742492 0.8008747 0 0.5988321 0.8457028 0 -0.5336541 0 -1 0 -0.5861729 0 0.8101861 -0.5121498 0 0.8588962 0.5121498 0 0.8588962 0 0.5121497 0.8588963 0.5954643 0 0.8033819 0.3872494 0 0.921975 0.4682528 -0.8835946 0 0.3872498 0 -0.921975 0.6830338 0.7303869 0 0.5954651 0 -0.8033812 0.6830338 -0.7303869 0 -1 5.69097e-6 0 0 0.9045414 0.4263858 0 -0.5121495 0.8588964 0 -0.9045414 0.4263858 -0.9045414 0 0.4263858 0.9045414 0 0.4263858 0 -0.2254741 0.9742492 0 1 0 -0.2254737 0 0.9742493 0.4682531 0.8835944 0 -0.6191402 0.7852805 0 -0.01077961 -0.9999419 0 -0.529936 0 0.8480377 -0.6191402 -0.7852805 0 -0.5299366 0 -0.8480374 -0.008544027 0 0.9999636 -0.01077967 0.9999419 0 -0.008543848 0 -0.9999636 1 -1.26048e-5 0 1 1.26048e-5 0 0 0.225474 0.9742492 0.8008742 0 0.5988326 0.845703 0 -0.5336538 0 -1 0 -0.5861732 0 0.8101858 -0.5121495 0 0.8588964 0.5121495 0 0.8588964 0 0.5121495 0.8588964 0.5954657 0 0.8033809 0.3872495 0 0.921975 0.4682529 -0.8835946 0 0.3872503 0 -0.9219747 0.6830333 0.7303873 0 0.5954657 0 -0.8033809 0.6830333 -0.7303873 0</float_array>
          <technique_common>
            <accessor source="#Cube-mesh-normals-array" count="76" stride="3">
              <param name="X" type="float"/>
              <param name="Y" type="float"/>
              <param name="Z" type="float"/>
            </accessor>
          </technique_common>
        </source>
        <source id="Cube-mesh-map-0">
          <float_array id="Cube-mesh-map-0-array" count="768">0.625 0.25 0.625 0.5 0.625 0.5 0.625 0.75 0.375 1 0.375 0.75 0.625 0 0.375 0.25 0.375 0 0.375 1 0.375 0.75 0.375 0.75 0.625 0.5 0.375 0.75 0.375 0.5 0.625 0.25 0.375 0.5 0.375 0.25 0.625 0 0.625 0.5 0.625 0.75 0.625 0.75 0.625 1 0.625 1 0.625 0 0.625 0.25 0.625 0.25 0.625 0.5 0.625 0.75 0.625 0.75 0.625 0.25 0.625 0.5 0.625 0.5 0.625 0.75 0.625 1 0.625 1 0.625 0.5 0.625 0.25 0.625 0.5 0.625 0 0.625 0.25 0.625 0.25 0.875 0.5 0.625 0.75 0.625 0.5 0.625 0.5 0.625 0.5 0.625 0.5 0.625 0.25 0.625 0.25 0.625 0.25 0.625 0.75 0.625 1 0.625 1 0.625 1 0.625 1 0.625 1 0.875 0.5 0.875 0.75 0.875 0.75 0.625 1 0.625 1 0.625 1 0.625 0 0.625 0.25 0.625 0.25 0.875 0.5 0.875 0.75 0.875 0.75 0.875 0.5 0.875 0.75 0.875 0.75 0.625 0.25 0.625 0.25 0.625 0.25 0.625 0 0.625 0.25 0.625 0.25 0.625 0.25 0.625 0.25 0.625 0.25 0.625 0.25 0.625 0.25 0.625 0.25 0.625 0 0.625 0.25 0.625 0.25 0.625 1 0.625 1 0.625 1 0.625 1 0.625 1 0.625 1 0.625 0 0.625 0.25 0.625 0.25 0.625 1 0.625 1 0.625 1 0.875 0.5 0.875 0.75 0.875 0.75 0.625 0.5 0.625 0.25 0.625 0.5 0.625 0.5 0.625 0.75 0.625 0.75 0.625 0.5 0.625 0 0.625 0.75 0.625 0.5 0.625 0.75 0.625 0.75 0.625 0.75 0.625 1 0.625 1 0.625 0 0.625 0.25 0.625 0.25 0.375 0.75 0.375 0.5 0.375 0.5 0.375 0.25 0.375 0 0.375 0 0.375 0.75 0.375 0.5 0.375 0.5 0.375 0.5 0.375 0.25 0.375 0.25 0.375 0.5 0.125 0.75 0.125 0.5 0.375 0.5 0.375 0.25 0.375 0.25 0.375 1 0.375 0.75 0.375 0.75 0.375 0.25 0.375 0 0.375 0 0.625 0.5 0.625 0.75 0.625 0.75 0.625 0.75 0.625 0.5 0.625 0.5 0.625 0.75 0.625 0.75 0.625 0.75 0.625 0.5 0.625 0.75 0.625 0.75 0.625 0.5 0.625 0.75 0.625 0.75 0.625 0.75 0.625 0.75 0.625 0.75 0.625 0.75 0.625 0.5 0.625 0.5 0.625 0.5 0.625 0.5 0.625 0.5 0.625 0.25 0.625 0.25 0.625 0.25 0.875 0.5 0.875 0.75 0.875 0.75 0.625 0.25 0.625 0.25 0.625 0.25 0.625 0 0.625 0.25 0.625 0.25 0.625 0 0.625 0.25 0.625 0.25 0.625 0 0.625 0.25 0.625 0.25 0.625 1 0.625 1 0.625 1 0.875 0.5 0.875 0.75 0.875 0.75 0.625 0.25 0.625 0.25 0.625 0.5 0.625 0.75 0.625 1 0.375 1 0.625 0 0.625 0.25 0.375 0.25 0.375 1 0.375 1 0.375 0.75 0.625 0.5 0.625 0.75 0.375 0.75 0.625 0.25 0.625 0.5 0.375 0.5 0.625 0 0.625 0.25 0.625 0.5 0.625 0.75 0.625 0.75 0.625 1 0.625 0 0.625 0 0.625 0.25 0.625 0.5 0.625 0.5 0.625 0.75 0.625 0.25 0.625 0.25 0.625 0.5 0.625 0.75 0.625 0.75 0.625 1 0.625 0.5 0.625 0.25 0.625 0.25 0.625 0 0.625 0 0.625 0.25 0.875 0.5 0.875 0.75 0.625 0.75 0.625 0.5 0.625 0.5 0.625 0.5 0.625 0.25 0.625 0.25 0.625 0.25 0.625 0.75 0.625 0.75 0.625 1 0.625 1 0.625 1 0.625 1 0.875 0.5 0.875 0.5 0.875 0.75 0.625 1 0.625 1 0.625 1 0.625 0 0.625 0 0.625 0.25 0.875 0.5 0.875 0.5 0.875 0.75 0.875 0.5 0.875 0.5 0.875 0.75 0.625 0.25 0.625 0.25 0.625 0.25 0.625 0 0.625 0 0.625 0.25 0.625 0.25 0.625 0.25 0.625 0.25 0.625 0.25 0.625 0.25 0.625 0.25 0.625 0 0.625 0 0.625 0.25 0.625 1 0.625 1 0.625 1 0.625 1 0.625 1 0.625 1 0.625 0 0.625 0 0.625 0.25 0.625 1 0.625 1 0.625 1 0.875 0.5 0.875 0.5 0.875 0.75 0.625 0.5 0.625 0.25 0.625 0.25 0.625 0.5 0.625 0.5 0.625 0.75 0.625 0.5 0.625 0.25 0.625 0 0.625 0.5 0.625 0.5 0.625 0.75 0.625 0.75 0.625 0.75 0.625 1 0.625 0 0.625 0 0.625 0.25 0.375 0.75 0.375 0.75 0.375 0.5 0.375 0.25 0.375 0.25 0.375 0 0.375 0.75 0.375 0.75 0.375 0.5 0.375 0.5 0.375 0.5 0.375 0.25 0.375 0.5 0.375 0.75 0.125 0.75 0.375 0.5 0.375 0.5 0.375 0.25 0.375 1 0.375 1 0.375 0.75 0.375 0.25 0.375 0.25 0.375 0 0.625 0.5 0.625 0.5 0.625 0.75 0.625 0.75 0.625 0.75 0.625 0.5 0.625 0.75 0.625 0.75 0.625 0.75 0.625 0.5 0.625 0.5 0.625 0.75 0.625 0.5 0.625 0.5 0.625 0.75 0.625 0.75 0.625 0.75 0.625 0.75 0.625 0.75 0.625 0.75 0.625 0.5 0.625 0.5 0.625 0.5 0.625 0.5 0.625 0.25 0.625 0.25 0.625 0.25 0.875 0.5 0.875 0.5 0.875 0.75 0.625 0.25 0.625 0.25 0.625 0.25 0.625 0 0.625 0 0.625 0.25 0.625 0 0.625 0 0.625 0.25 0.625 0 0.625 0 0.625 0.25 0.625 1 0.625 1 0.625 1 0.875 0.5 0.875 0.5 0.875 0.75</float_array>
          <technique_common>
            <accessor source="#Cube-mesh-map-0-array" count="384" stride="2">
              <param name="S" type="float"/>
              <param name="T" type="float"/>
            </accessor>
          </technique_common>
        </source>
        <vertices id="Cube-mesh-vertices">
          <input semantic="POSITION" source="#Cube-mesh-positions"/>
        </vertices>
        <triangles material="base_tower-material" count="78">
          <input semantic="VERTEX" source="#Cube-mesh-vertices" offset="0"/>
          <input semantic="NORMAL" source="#Cube-mesh-normals" offset="1"/>
          <input semantic="TEXCOORD" source="#Cube-mesh-map-0" offset="2" set="0"/>
          <p>15 6 18 12 6 19 13 6 20 14 5 30 16 5 31 12 5 32 9 10 33 39 10 34 11 10 35 36 11 36 42 11 37 40 11 38 11 12 39 38 12 40 10 12 41 18 13 42 17 13 43 16 13 44 14 15 48 22 15 49 18 15 50 13 1 51 19 1 52 15 1 53 18 17 57 23 17 58 19 17 59 19 18 60 21 18 61 15 18 62 15 19 63 20 19 64 14 19 65 26 4 66 31 4 67 27 4 68 28 5 78 34 5 79 30 5 80 24 23 81 30 23 82 26 23 83 25 4 84 28 4 85 24 4 86 27 24 87 29 24 88 25 24 89 35 25 90 61 25 91 33 25 92 29 6 93 32 6 94 28 6 95 31 1 96 33 1 97 29 1 98 30 13 99 35 13 100 31 13 101 8 26 102 38 26 103 36 26 104 8 27 105 37 27 106 9 27 107 40 13 108 43 13 109 41 13 110 36 28 111 41 28 112 37 28 113 37 29 114 43 29 115 39 29 116 39 30 117 42 30 118 38 30 119 52 34 144 57 34 145 53 34 146 56 4 156 59 4 157 57 4 158 53 38 159 59 38 160 55 38 161 55 39 162 58 39 163 54 39 164 54 40 165 56 40 166 52 40 167 60 1 168 66 1 169 62 1 170 34 2 171 63 2 172 35 2 173 32 41 174 62 41 175 34 41 176 33 2 177 60 2 178 32 2 179 65 2 180 66 2 181 64 2 182 61 13 183 64 13 184 60 13 185 63 5 186 65 5 187 61 5 188 62 6 189 67 6 190 63 6 191 15 6 210 14 6 211 12 6 212 14 5 222 18 5 223 16 5 224 9 47 225 37 47 226 39 47 227 36 48 228 38 48 229 42 48 230 11 49 231 39 49 232 38 49 233 18 13 234 19 13 235 17 13 236 14 51 240 20 51 241 22 51 242 13 1 243 17 1 244 19 1 245 18 53 249 22 53 250 23 53 251 19 54 252 23 54 253 21 54 254 15 55 255 21 55 256 20 55 257 26 4 258 30 4 259 31 4 260 28 5 270 32 5 271 34 5 272 24 59 273 28 59 274 30 59 275 25 4 276 29 4 277 28 4 278 27 60 279 31 60 280 29 60 281 35 2 282 63 2 283 61 2 284 29 6 285 33 6 286 32 6 287 31 1 288 35 1 289 33 1 290 30 13 291 34 13 292 35 13 293 8 61 294 10 61 295 38 61 296 8 62 297 36 62 298 37 62 299 40 13 300 42 13 301 43 13 302 36 63 303 40 63 304 41 63 305 37 64 306 41 64 307 43 64 308 39 65 309 43 65 310 42 65 311 52 69 336 56 69 337 57 69 338 56 4 348 58 4 349 59 4 350 53 73 351 57 73 352 59 73 353 55 74 354 59 74 355 58 74 356 54 75 357 58 75 358 56 75 359 60 1 360 64 1 361 66 1 362 34 2 363 62 2 364 63 2 365 32 2 366 60 2 367 62 2 368 33 2 369 61 2 370 60 2 371 65 2 372 67 2 373 66 2 374 61 13 375 65 13 376 64 13 377 63 5 378 67 5 379 65 5 380 62 6 381 66 6 382 67 6 383</p>
        </triangles>
        <triangles material="Material-material" count="16">
          <input semantic="VERTEX" source="#Cube-mesh-vertices" offset="0"/>
          <input semantic="NORMAL" source="#Cube-mesh-normals" offset="1"/>
          <input semantic="TEXCOORD" source="#Cube-mesh-map-0" offset="2" set="0"/>
          <p>16 14 45 52 14 46 12 14 47 23 16 54 25 16 55 21 16 56 22 20 69 27 20 70 23 20 71 20 21 72 26 21 73 22 21 74 21 22 75 24 22 76 20 22 77 17 35 147 54 35 148 16 35 149 13 36 150 55 36 151 17 36 152 12 37 153 53 37 154 13 37 155 16 50 237 54 50 238 52 50 239 23 52 246 27 52 247 25 52 248 22 56 261 26 56 262 27 56 263 20 57 264 24 57 265 26 57 266 21 58 267 25 58 268 24 58 269 17 70 339 55 70 340 54 70 341 13 71 342 53 71 343 55 71 344 12 72 345 52 72 346 53 72 347</p>
        </triangles>
        <triangles material="Material_001-material" count="16">
          <input semantic="VERTEX" source="#Cube-mesh-vertices" offset="0"/>
          <input semantic="NORMAL" source="#Cube-mesh-normals" offset="1"/>
          <input semantic="TEXCOORD" source="#Cube-mesh-map-0" offset="2" set="0"/>
          <p>4 0 0 8 0 1 0 0 2 2 1 3 7 1 4 3 1 5 6 2 6 5 2 7 7 2 8 0 4 12 3 4 13 1 4 14 4 5 15 1 5 16 5 5 17 2 7 21 11 7 22 6 7 23 6 8 24 10 8 25 4 8 26 0 9 27 9 9 28 2 9 29 4 42 192 10 42 193 8 42 194 2 1 195 6 1 196 7 1 197 6 2 198 4 2 199 5 2 200 0 4 204 2 4 205 3 4 206 4 5 207 0 5 208 1 5 209 2 44 213 9 44 214 11 44 215 6 45 216 11 45 217 10 45 218 0 46 219 8 46 220 9 46 221</p>
        </triangles>
        <triangles material="Material_002-material" count="18">
          <input semantic="VERTEX" source="#Cube-mesh-vertices" offset="0"/>
          <input semantic="NORMAL" source="#Cube-mesh-normals" offset="1"/>
          <input semantic="TEXCOORD" source="#Cube-mesh-map-0" offset="2" set="0"/>
          <p>7 3 9 45 3 10 3 3 11 45 4 120 48 4 121 44 4 122 5 31 123 47 31 124 7 31 125 3 32 126 44 32 127 1 32 128 1 33 129 46 33 130 5 33 131 48 6 132 51 6 133 50 6 134 44 5 135 50 5 136 46 5 137 47 1 138 49 1 139 45 1 140 46 2 141 51 2 142 47 2 143 7 43 201 47 43 202 45 43 203 45 4 312 49 4 313 48 4 314 5 66 315 46 66 316 47 66 317 3 67 318 45 67 319 44 67 320 1 68 321 44 68 322 46 68 323 48 6 324 49 6 325 51 6 326 44 5 327 48 5 328 50 5 329 47 1 330 51 1 331 49 1 332 46 2 333 50 2 334 51 2 335</p>
        </triangles>
      </mesh>
    </geometry>
  </library_geometries>
  <library_controllers>
    <controller id="Armature_Cube-skin" name="Armature">
      <skin source="#Cube-mesh">
        <bind_shape_matrix>0.2627871 6.71843e-9 -0.05000365 -0.04638017 -6.71843e-9 0.2675021 6.33515e-10 -0.0201487 0.05000365 6.33515e-10 0.2627871 0.2520798 0 0 0 1</bind_shape_matrix>
        <source id="Armature_Cube-skin-joints">
          <Name_array id="Armature_Cube-skin-joints-array" count="2">Base canon</Name_array>
          <technique_common>
            <accessor source="#Armature_Cube-skin-joints-array" count="2" stride="1">
              <param name="JOINT" type="name"/>
            </accessor>
          </technique_common>
        </source>
        <source id="Armature_Cube-skin-bind_poses">
          <float_array id="Armature_Cube-skin-bind_poses-array" count="32">0.2627871 0 -0.05000364 0.002031147 0.05000364 0 0.2627871 -0.002338945 0 -0.2675021 0 -2.28e-4 0 0 0 1 3.33654e-4 0 0.267502 -0.9852814 -0.267502 0 3.33625e-4 0.1841412 0 -0.2675022 0 -2.2814e-4 0 0 0 1</float_array>
          <technique_common>
            <accessor source="#Armature_Cube-skin-bind_poses-array" count="2" stride="16">
              <param name="TRANSFORM" type="float4x4"/>
            </accessor>
          </technique_common>
        </source>
        <source id="Armature_Cube-skin-weights">
          <float_array id="Armature_Cube-skin-weights-array" count="68">1 1 1 1 1 1 1 1 1 1 1 1 1 1 1 1 1 1 1 1 1 1 1 1 1 1 1 1 1 1 1 1 1 1 1 1 1 1 1 1 1 1 1 1 1 1 1 1 1 1 1 1 1 1 1 1 1 1 1 1 1 1 1 1 1 1 1 1</float_array>
          <technique_common>
            <accessor source="#Armature_Cube-skin-weights-array" count="68" stride="1">
              <param name="WEIGHT" type="float"/>
            </accessor>
          </technique_common>
        </source>
        <joints>
          <input semantic="JOINT" source="#Armature_Cube-skin-joints"/>
          <input semantic="INV_BIND_MATRIX" source="#Armature_Cube-skin-bind_poses"/>
        </joints>
        <vertex_weights count="68">
          <input semantic="JOINT" source="#Armature_Cube-skin-joints" offset="0"/>
          <input semantic="WEIGHT" source="#Armature_Cube-skin-weights" offset="1"/>
          <vcount>1 1 1 1 1 1 1 1 1 1 1 1 1 1 1 1 1 1 1 1 1 1 1 1 1 1 1 1 1 1 1 1 1 1 1 1 1 1 1 1 1 1 1 1 1 1 1 1 1 1 1 1 1 1 1 1 1 1 1 1 1 1 1 1 1 1 1 1 </vcount>
          <v>0 0 0 1 0 2 0 3 0 4 0 5 0 6 0 7 0 8 0 9 0 10 0 11 1 12 1 13 1 14 1 15 1 16 1 17 1 18 1 19 1 20 1 21 1 22 1 23 1 24 1 25 1 26 1 27 1 28 1 29 1 30 1 31 1 32 1 33 1 34 1 35 0 36 0 37 0 38 0 39 0 40 0 41 0 42 0 43 0 44 0 45 0 46 0 47 0 48 0 49 0 50 0 51 1 52 1 53 1 54 1 55 1 56 1 57 1 58 1 59 1 60 1 61 1 62 1 63 1 64 1 65 1 66 1 67</v>
        </vertex_weights>
      </skin>
    </controller>
  </library_controllers>
  <library_visual_scenes>
    <visual_scene id="Scene" name="Scene">
      <node id="Armature" name="Armature" type="NODE">
        <matrix sid="transform">3.672395 -9.38887e-8 0.6987906 -0.005824752 9.38887e-8 3.738287 8.85324e-9 0.07532164 -0.6987906 8.85324e-9 3.672395 0.01000908 0 0 0 1</matrix>
        <node id="Armature_Base" name="Base" sid="Base" type="JOINT">
          <matrix sid="transform">1 0 0 -5.1177e-10 0 0 -1 -0.0203767 0 1 0 -4.82573e-11 0 0 0 1</matrix>
          <node id="Armature_canon" name="canon" sid="canon" type="JOINT">
            <matrix sid="transform">-0.1857027 -0.9826061 -5.18209e-8 0 0.9826061 -0.1857026 1.38398e-7 1 -1.45614e-7 -2.52188e-8 1 0 0 0 0 1</matrix>
            <extra>
              <technique profile="blender">
                <connect sid="connect" type="bool">1</connect>
                <layer sid="layer" type="string">0</layer>
                <roll sid="roll" type="float">-1.757583</roll>
                <tip_x sid="tip_x" type="float">-1.161196</tip_x>
                <tip_y sid="tip_y" type="float">0</tip_y>
                <tip_z sid="tip_z" type="float">-0.2194542</tip_z>
              </technique>
            </extra>
          </node>
          <extra>
            <technique profile="blender">
              <layer sid="layer" type="string">0</layer>
            </technique>
          </extra>
        </node>
        <node id="Cube" name="Cube" type="NODE">
          <matrix sid="transform">1 0 0 0 0 1 0 0 0 0 1 0 0 0 0 1</matrix>
          <instance_controller url="#Armature_Cube-skin">
            <skeleton>#Armature_Base</skeleton>
            <bind_material>
              <technique_common>
                <instance_material symbol="base_tower-material" target="#base_tower-material">
                  <bind_vertex_input semantic="UVMap" input_semantic="TEXCOORD" input_set="0"/>
                </instance_material>
                <instance_material symbol="Material-material" target="#Material-material">
                  <bind_vertex_input semantic="UVMap" input_semantic="TEXCOORD" input_set="0"/>
                </instance_material>
                <instance_material symbol="Material_001-material" target="#Material_001-material">
                  <bind_vertex_input semantic="UVMap" input_semantic="TEXCOORD" input_set="0"/>
                </instance_material>
                <instance_material symbol="Material_002-material" target="#Material_002-material">
                  <bind_vertex_input semantic="UVMap" input_semantic="TEXCOORD" input_set="0"/>
                </instance_material>
              </technique_common>
            </bind_material>
          </instance_controller>
        </node>
      </node>
      <node id="Camera" name="Camera" type="NODE">
        <matrix sid="transform">0.6859207 -0.3240135 0.6515582 7.358891 0.7276763 0.3054208 -0.6141704 -6.925791 0 0.8953956 0.4452714 4.958309 0 0 0 1</matrix>
        <instance_camera url="#Camera-camera"/>
      </node>
      <node id="Light" name="Light" type="NODE">
        <matrix sid="transform">-0.2908646 -0.7711008 0.5663932 4.076245 0.9551712 -0.1998834 0.2183912 1.005454 -0.05518906 0.6045247 0.7946723 5.903862 0 0 0 1</matrix>
        <instance_light url="#Light-light"/>
      </node>
    </visual_scene>
  </library_visual_scenes>
  <scene>
    <instance_visual_scene url="#Scene"/>
  </scene>
</COLLADA>